<svg id="visual" viewBox="0 0 2048 2048" width="2048" height="2048" xmlns="http://www.w3.org/2000/svg" xmlns:xlink="http://www.w3.org/1999/xlink" version="1.1"><g stroke-width="1" stroke-linejoin="bevel"><path d="M1054 1042L1046 1100.4L1139.4 1117.4Z" fill="#222222" stroke="#222222"></path><path d="M1139.4 1117.4L1148.4 994L1054 1042Z" fill="#1a1a1a" stroke="#1a1a1a"></path><path d="M1139.4 1117.4L1232.8 1041L1148.4 994Z" fill="#1e1e1e" stroke="#1e1e1e"></path><path d="M1139.4 1117.4L1238.8 1120.4L1232.8 1041Z" fill="#3e3e3e" stroke="#3e3e3e"></path><path d="M1046 1100.4L1115.4 1224.8L1139.4 1117.4Z" fill="#222222" stroke="#222222"></path><path d="M1139.4 1117.4L1115.4 1224.8L1238.8 1120.4Z" fill="#2b2b2b" stroke="#2b2b2b"></path><path d="M1054 1042L944.6 1101.4L1046 1100.4Z" fill="#3e3e3e" stroke="#3e3e3e"></path><path d="M1046 1100.4L1038 1256.8L1115.4 1224.8Z" fill="#1e1e1e" stroke="#1e1e1e"></path><path d="M1250.8 923.6L1106.4 902.6L1148.4 994Z" fill="#151515" stroke="#151515"></path><path d="M1148.4 994L1106.4 902.6L1054 1042Z" fill="#101010" stroke="#101010"></path><path d="M1054 1042L895.6 1015L944.6 1101.4Z" fill="#151515" stroke="#151515"></path><path d="M944.6 1101.4L1038 1256.8L1046 1100.4Z" fill="#1e1e1e" stroke="#1e1e1e"></path><path d="M1106.4 902.6L1034 889.6L1054 1042Z" fill="#303030" stroke="#303030"></path><path d="M914.6 941.6L895.6 1015L1054 1042Z" fill="#151515" stroke="#151515"></path><path d="M1325.2 1016L1250.8 923.6L1232.8 1041Z" fill="#393939" stroke="#393939"></path><path d="M1232.8 1041L1250.8 923.6L1148.4 994Z" fill="#1a1a1a" stroke="#1a1a1a"></path><path d="M1106.4 902.6L1030 847.2L1034 889.6Z" fill="#303030" stroke="#303030"></path><path d="M1226.8 1311.2L1252.8 1239.8L1115.4 1224.8Z" fill="#2b2b2b" stroke="#2b2b2b"></path><path d="M1115.4 1224.8L1252.8 1239.8L1238.8 1120.4Z" fill="#1e1e1e" stroke="#1e1e1e"></path><path d="M1352.2 1098.4L1325.2 1016L1232.8 1041Z" fill="#303030" stroke="#303030"></path><path d="M1034 889.6L914.6 941.6L1054 1042Z" fill="#1a1a1a" stroke="#1a1a1a"></path><path d="M1352.2 1098.4L1232.8 1041L1238.8 1120.4Z" fill="#1a1a1a" stroke="#1a1a1a"></path><path d="M1140.4 830.2L1030 847.2L1106.4 902.6Z" fill="#2b2b2b" stroke="#2b2b2b"></path><path d="M1034 889.6L951.6 821.2L914.6 941.6Z" fill="#101010" stroke="#101010"></path><path d="M1252.8 1239.8L1301.2 1208.8L1238.8 1120.4Z" fill="#151515" stroke="#151515"></path><path d="M1250.8 923.6L1140.4 830.2L1106.4 902.6Z" fill="#1e1e1e" stroke="#1e1e1e"></path><path d="M1301.2 1208.8L1352.2 1098.4L1238.8 1120.4Z" fill="#393939" stroke="#393939"></path><path d="M890.6 1250.8L995 1311.2L1038 1256.8Z" fill="#353535" stroke="#353535"></path><path d="M1139.4 1361.2L1226.8 1311.2L1115.4 1224.8Z" fill="#303030" stroke="#303030"></path><path d="M890.6 1250.8L1038 1256.8L944.6 1101.4Z" fill="#2b2b2b" stroke="#2b2b2b"></path><path d="M1139.4 1361.2L1115.4 1224.8L1038 1256.8Z" fill="#393939" stroke="#393939"></path><path d="M1252.8 1239.8L1355.2 1343.2L1301.2 1208.8Z" fill="#2b2b2b" stroke="#2b2b2b"></path><path d="M1421.6 994L1315.2 922.6L1325.2 1016Z" fill="#272727" stroke="#272727"></path><path d="M1325.2 1016L1315.2 922.6L1250.8 923.6Z" fill="#101010" stroke="#101010"></path><path d="M1250.8 923.6L1245.8 846.2L1140.4 830.2Z" fill="#303030" stroke="#303030"></path><path d="M788.2 1206.8L890.6 1250.8L944.6 1101.4Z" fill="#3e3e3e" stroke="#3e3e3e"></path><path d="M1315.2 922.6L1245.8 846.2L1250.8 923.6Z" fill="#1e1e1e" stroke="#1e1e1e"></path><path d="M995 1311.2L1139.4 1361.2L1038 1256.8Z" fill="#272727" stroke="#272727"></path><path d="M1034 742.8L951.6 821.2L1030 847.2Z" fill="#151515" stroke="#151515"></path><path d="M1030 847.2L951.6 821.2L1034 889.6Z" fill="#1a1a1a" stroke="#1a1a1a"></path><path d="M914.6 941.6L840.2 927.6L895.6 1015Z" fill="#393939" stroke="#393939"></path><path d="M895.6 1015L788.2 1106.4L944.6 1101.4Z" fill="#353535" stroke="#353535"></path><path d="M951.6 821.2L840.2 927.6L914.6 941.6Z" fill="#222222" stroke="#222222"></path><path d="M890.6 1250.8L925.6 1327.2L995 1311.2Z" fill="#151515" stroke="#151515"></path><path d="M1003 1415.6L1142.4 1411.6L1139.4 1361.2Z" fill="#2b2b2b" stroke="#2b2b2b"></path><path d="M1410.6 1224.8L1404.6 1101.4L1352.2 1098.4Z" fill="#151515" stroke="#151515"></path><path d="M1352.2 1098.4L1404.6 1101.4L1325.2 1016Z" fill="#3e3e3e" stroke="#3e3e3e"></path><path d="M1410.6 1224.8L1352.2 1098.4L1301.2 1208.8Z" fill="#2b2b2b" stroke="#2b2b2b"></path><path d="M788.2 1000L788.2 1106.4L895.6 1015Z" fill="#1a1a1a" stroke="#1a1a1a"></path><path d="M890.6 1250.8L825.2 1318.2L925.6 1327.2Z" fill="#222222" stroke="#222222"></path><path d="M840.2 927.6L788.2 1000L895.6 1015Z" fill="#393939" stroke="#393939"></path><path d="M1404.6 1101.4L1421.6 994L1325.2 1016Z" fill="#1a1a1a" stroke="#1a1a1a"></path><path d="M1315.2 922.6L1336.2 832.2L1245.8 846.2Z" fill="#393939" stroke="#393939"></path><path d="M788.2 1106.4L788.2 1206.8L944.6 1101.4Z" fill="#101010" stroke="#101010"></path><path d="M1003 1415.6L1139.4 1361.2L995 1311.2Z" fill="#1a1a1a" stroke="#1a1a1a"></path><path d="M1139.4 1361.2L1249.8 1401.6L1226.8 1311.2Z" fill="#272727" stroke="#272727"></path><path d="M1355.2 1343.2L1410.6 1224.8L1301.2 1208.8Z" fill="#1a1a1a" stroke="#1a1a1a"></path><path d="M1114.4 703.8L1034 742.8L1140.4 830.2Z" fill="#303030" stroke="#303030"></path><path d="M1140.4 830.2L1034 742.8L1030 847.2Z" fill="#151515" stroke="#151515"></path><path d="M1402.6 825.2L1336.2 832.2L1315.2 922.6Z" fill="#101010" stroke="#101010"></path><path d="M1257.8 702.8L1114.4 703.8L1140.4 830.2Z" fill="#1a1a1a" stroke="#1a1a1a"></path><path d="M1355.2 1343.2L1252.8 1239.8L1226.8 1311.2Z" fill="#303030" stroke="#303030"></path><path d="M1551 916.6L1461.6 895.6L1421.6 994Z" fill="#2b2b2b" stroke="#2b2b2b"></path><path d="M911.6 1410.6L1003 1415.6L925.6 1327.2Z" fill="#2b2b2b" stroke="#2b2b2b"></path><path d="M925.6 1327.2L1003 1415.6L995 1311.2Z" fill="#353535" stroke="#353535"></path><path d="M1142.4 1411.6L1249.8 1401.6L1139.4 1361.2Z" fill="#303030" stroke="#303030"></path><path d="M788.2 1206.8L825.2 1318.2L890.6 1250.8Z" fill="#101010" stroke="#101010"></path><path d="M1249.8 1401.6L1355.2 1343.2L1226.8 1311.2Z" fill="#151515" stroke="#151515"></path><path d="M1257.8 702.8L1140.4 830.2L1245.8 846.2Z" fill="#1e1e1e" stroke="#1e1e1e"></path><path d="M1034 742.8L951.6 728.8L951.6 821.2Z" fill="#303030" stroke="#303030"></path><path d="M951.6 821.2L799.2 837.2L840.2 927.6Z" fill="#222222" stroke="#222222"></path><path d="M840.2 927.6L706.8 925.6L788.2 1000Z" fill="#1a1a1a" stroke="#1a1a1a"></path><path d="M1027 598.4L951.6 728.8L1034 742.8Z" fill="#393939" stroke="#393939"></path><path d="M825.2 1318.2L911.6 1410.6L925.6 1327.2Z" fill="#101010" stroke="#101010"></path><path d="M848.2 693.8L799.2 837.2L951.6 821.2Z" fill="#2b2b2b" stroke="#2b2b2b"></path><path d="M1461.6 895.6L1402.6 825.2L1315.2 922.6Z" fill="#101010" stroke="#101010"></path><path d="M1336.2 832.2L1257.8 702.8L1245.8 846.2Z" fill="#1e1e1e" stroke="#1e1e1e"></path><path d="M706.8 925.6L702.8 1028L788.2 1000Z" fill="#101010" stroke="#101010"></path><path d="M788.2 1000L702.8 1028L788.2 1106.4Z" fill="#1a1a1a" stroke="#1a1a1a"></path><path d="M788.2 1106.4L696.8 1101.4L788.2 1206.8Z" fill="#1a1a1a" stroke="#1a1a1a"></path><path d="M788.2 1206.8L721.8 1324.2L825.2 1318.2Z" fill="#393939" stroke="#393939"></path><path d="M702.8 1028L696.8 1101.4L788.2 1106.4Z" fill="#353535" stroke="#353535"></path><path d="M1355.2 1343.2L1428.6 1312.2L1410.6 1224.8Z" fill="#1e1e1e" stroke="#1e1e1e"></path><path d="M1546 1094.4L1421.6 994L1404.6 1101.4Z" fill="#1e1e1e" stroke="#1e1e1e"></path><path d="M1461.6 1450.6L1428.6 1312.2L1355.2 1343.2Z" fill="#3e3e3e" stroke="#3e3e3e"></path><path d="M1421.6 994L1461.6 895.6L1315.2 922.6Z" fill="#101010" stroke="#101010"></path><path d="M1546 1094.4L1404.6 1101.4L1410.6 1224.8Z" fill="#393939" stroke="#393939"></path><path d="M1350.2 695.8L1257.8 702.8L1336.2 832.2Z" fill="#1a1a1a" stroke="#1a1a1a"></path><path d="M799.2 837.2L706.8 925.6L840.2 927.6Z" fill="#393939" stroke="#393939"></path><path d="M606.4 1102.4L631.4 1223.8L696.8 1101.4Z" fill="#3e3e3e" stroke="#3e3e3e"></path><path d="M696.8 1101.4L692.8 1239.8L788.2 1206.8Z" fill="#1a1a1a" stroke="#1a1a1a"></path><path d="M825.2 1318.2L833.2 1429.6L911.6 1410.6Z" fill="#1a1a1a" stroke="#1a1a1a"></path><path d="M721.8 1324.2L833.2 1429.6L825.2 1318.2Z" fill="#303030" stroke="#303030"></path><path d="M1050 1558L1142.4 1411.6L1003 1415.6Z" fill="#353535" stroke="#353535"></path><path d="M1202.8 1553L1249.8 1401.6L1142.4 1411.6Z" fill="#101010" stroke="#101010"></path><path d="M1428.6 1312.2L1512 1248.8L1410.6 1224.8Z" fill="#303030" stroke="#303030"></path><path d="M1512 1248.8L1546 1094.4L1410.6 1224.8Z" fill="#222222" stroke="#222222"></path><path d="M1202.8 1553L1340.2 1456.6L1249.8 1401.6Z" fill="#1e1e1e" stroke="#1e1e1e"></path><path d="M1249.8 1401.6L1340.2 1456.6L1355.2 1343.2Z" fill="#303030" stroke="#303030"></path><path d="M1428.6 1312.2L1564 1352.2L1512 1248.8Z" fill="#2b2b2b" stroke="#2b2b2b"></path><path d="M1128.4 1552L1142.4 1411.6L1050 1558Z" fill="#393939" stroke="#393939"></path><path d="M692.8 1239.8L721.8 1324.2L788.2 1206.8Z" fill="#151515" stroke="#151515"></path><path d="M1429.6 726.8L1350.2 695.8L1402.6 825.2Z" fill="#303030" stroke="#303030"></path><path d="M1402.6 825.2L1350.2 695.8L1336.2 832.2Z" fill="#1e1e1e" stroke="#1e1e1e"></path><path d="M1257.8 702.8L1138.4 596.4L1114.4 703.8Z" fill="#353535" stroke="#353535"></path><path d="M904.6 633.4L848.2 693.8L951.6 728.8Z" fill="#1e1e1e" stroke="#1e1e1e"></path><path d="M951.6 728.8L848.2 693.8L951.6 821.2Z" fill="#2b2b2b" stroke="#2b2b2b"></path><path d="M799.2 837.2L721.8 796.2L706.8 925.6Z" fill="#101010" stroke="#101010"></path><path d="M1027 598.4L1034 742.8L1114.4 703.8Z" fill="#101010" stroke="#101010"></path><path d="M1606.4 929.6L1565 1021L1632.4 1000Z" fill="#303030" stroke="#303030"></path><path d="M1546 1094.4L1565 1021L1421.6 994Z" fill="#272727" stroke="#272727"></path><path d="M1559 794.2L1429.6 726.8L1402.6 825.2Z" fill="#303030" stroke="#303030"></path><path d="M848.2 693.8L721.8 796.2L799.2 837.2Z" fill="#1e1e1e" stroke="#1e1e1e"></path><path d="M1050 1558L1003 1415.6L910.6 1562Z" fill="#3e3e3e" stroke="#3e3e3e"></path><path d="M1565 1021L1551 916.6L1421.6 994Z" fill="#272727" stroke="#272727"></path><path d="M910.6 1562L1003 1415.6L911.6 1410.6Z" fill="#222222" stroke="#222222"></path><path d="M1559 794.2L1402.6 825.2L1461.6 895.6Z" fill="#272727" stroke="#272727"></path><path d="M1259.8 585.4L1257.8 702.8L1330.2 593.4Z" fill="#101010" stroke="#101010"></path><path d="M1259.8 585.4L1138.4 596.4L1257.8 702.8Z" fill="#2b2b2b" stroke="#2b2b2b"></path><path d="M1138.4 596.4L1027 598.4L1114.4 703.8Z" fill="#101010" stroke="#101010"></path><path d="M1027 598.4L904.6 633.4L951.6 728.8Z" fill="#353535" stroke="#353535"></path><path d="M848.2 693.8L702.8 714.8L721.8 796.2Z" fill="#222222" stroke="#222222"></path><path d="M1156.4 1627.4L1202.8 1553L1128.4 1552Z" fill="#303030" stroke="#303030"></path><path d="M1128.4 1552L1202.8 1553L1142.4 1411.6Z" fill="#151515" stroke="#151515"></path><path d="M696.8 1101.4L631.4 1223.8L692.8 1239.8Z" fill="#3e3e3e" stroke="#3e3e3e"></path><path d="M692.8 1239.8L599.4 1327.2L721.8 1324.2Z" fill="#303030" stroke="#303030"></path><path d="M606.4 1102.4L696.8 1101.4L596.4 1034Z" fill="#393939" stroke="#393939"></path><path d="M696.8 1101.4L702.8 1028L596.4 1034Z" fill="#101010" stroke="#101010"></path><path d="M596.4 1034L702.8 1028L706.8 925.6Z" fill="#1e1e1e" stroke="#1e1e1e"></path><path d="M1202.8 1553L1346.2 1514L1340.2 1456.6Z" fill="#393939" stroke="#393939"></path><path d="M1340.2 1456.6L1461.6 1450.6L1355.2 1343.2Z" fill="#2b2b2b" stroke="#2b2b2b"></path><path d="M606.4 898.6L596.4 1034L706.8 925.6Z" fill="#272727" stroke="#272727"></path><path d="M1330.2 593.4L1257.8 702.8L1350.2 695.8Z" fill="#2b2b2b" stroke="#2b2b2b"></path><path d="M1014 486L932.6 534L1027 598.4Z" fill="#1e1e1e" stroke="#1e1e1e"></path><path d="M835.2 1553L910.6 1562L833.2 1429.6Z" fill="#3e3e3e" stroke="#3e3e3e"></path><path d="M833.2 1429.6L910.6 1562L911.6 1410.6Z" fill="#2b2b2b" stroke="#2b2b2b"></path><path d="M724.8 1448.6L833.2 1429.6L721.8 1324.2Z" fill="#303030" stroke="#303030"></path><path d="M813.2 543L816.2 641.4L904.6 633.4Z" fill="#353535" stroke="#353535"></path><path d="M904.6 633.4L816.2 641.4L848.2 693.8Z" fill="#1e1e1e" stroke="#1e1e1e"></path><path d="M1346.2 1514L1461.6 1450.6L1340.2 1456.6Z" fill="#353535" stroke="#353535"></path><path d="M620.4 824.2L706.8 925.6L721.8 796.2Z" fill="#272727" stroke="#272727"></path><path d="M620.4 824.2L606.4 898.6L706.8 925.6Z" fill="#272727" stroke="#272727"></path><path d="M635.4 1456.6L724.8 1448.6L721.8 1324.2Z" fill="#101010" stroke="#101010"></path><path d="M1565 1021L1606.4 929.6L1551 916.6Z" fill="#1e1e1e" stroke="#1e1e1e"></path><path d="M1551 916.6L1559 794.2L1461.6 895.6Z" fill="#1a1a1a" stroke="#1a1a1a"></path><path d="M1632.4 1000L1565 1021L1639.4 1113.4Z" fill="#222222" stroke="#222222"></path><path d="M1565 1021L1546 1094.4L1639.4 1113.4Z" fill="#2b2b2b" stroke="#2b2b2b"></path><path d="M816.2 641.4L702.8 714.8L848.2 693.8Z" fill="#303030" stroke="#303030"></path><path d="M1401.6 633.4L1330.2 593.4L1350.2 695.8Z" fill="#1e1e1e" stroke="#1e1e1e"></path><path d="M1401.6 633.4L1350.2 695.8L1429.6 726.8Z" fill="#1e1e1e" stroke="#1e1e1e"></path><path d="M1522 610.4L1401.6 633.4L1429.6 726.8Z" fill="#272727" stroke="#272727"></path><path d="M1624.4 1206.8L1546 1094.4L1512 1248.8Z" fill="#2b2b2b" stroke="#2b2b2b"></path><path d="M1461.6 1450.6L1564 1352.2L1428.6 1312.2Z" fill="#101010" stroke="#101010"></path><path d="M1615.4 804.2L1551 916.6L1606.4 929.6Z" fill="#222222" stroke="#222222"></path><path d="M1615.4 804.2L1559 794.2L1551 916.6Z" fill="#222222" stroke="#222222"></path><path d="M702.8 714.8L620.4 824.2L721.8 796.2Z" fill="#101010" stroke="#101010"></path><path d="M1607.4 1302.2L1624.4 1206.8L1512 1248.8Z" fill="#272727" stroke="#272727"></path><path d="M1624.4 1206.8L1639.4 1113.4L1546 1094.4Z" fill="#151515" stroke="#151515"></path><path d="M724.8 1448.6L835.2 1553L833.2 1429.6Z" fill="#151515" stroke="#151515"></path><path d="M996 1652.4L1156.4 1627.4L1050 1558Z" fill="#353535" stroke="#353535"></path><path d="M1050 1558L1156.4 1627.4L1128.4 1552Z" fill="#303030" stroke="#303030"></path><path d="M1202.8 1553L1245.8 1624.4L1346.2 1514Z" fill="#303030" stroke="#303030"></path><path d="M1460.6 1545L1549 1442.6L1461.6 1450.6Z" fill="#1e1e1e" stroke="#1e1e1e"></path><path d="M996 1652.4L1050 1558L910.6 1562Z" fill="#1e1e1e" stroke="#1e1e1e"></path><path d="M1564 1352.2L1607.4 1302.2L1512 1248.8Z" fill="#1a1a1a" stroke="#1a1a1a"></path><path d="M535 1306.2L599.4 1327.2L631.4 1223.8Z" fill="#393939" stroke="#393939"></path><path d="M631.4 1223.8L599.4 1327.2L692.8 1239.8Z" fill="#1e1e1e" stroke="#1e1e1e"></path><path d="M537 1211.8L631.4 1223.8L606.4 1102.4Z" fill="#1e1e1e" stroke="#1e1e1e"></path><path d="M1156.4 1627.4L1245.8 1624.4L1202.8 1553Z" fill="#272727" stroke="#272727"></path><path d="M1156.4 512L1027 598.4L1138.4 596.4Z" fill="#222222" stroke="#222222"></path><path d="M1027 598.4L932.6 534L904.6 633.4Z" fill="#272727" stroke="#272727"></path><path d="M816.2 641.4L713.8 624.4L702.8 714.8Z" fill="#1a1a1a" stroke="#1a1a1a"></path><path d="M1156.4 512L1138.4 596.4L1230.8 509Z" fill="#222222" stroke="#222222"></path><path d="M1230.8 509L1138.4 596.4L1259.8 585.4Z" fill="#3e3e3e" stroke="#3e3e3e"></path><path d="M484 1144.4L537 1211.8L606.4 1102.4Z" fill="#3e3e3e" stroke="#3e3e3e"></path><path d="M510 1008L606.4 1102.4L596.4 1034Z" fill="#353535" stroke="#353535"></path><path d="M528 930.6L596.4 1034L606.4 898.6Z" fill="#303030" stroke="#303030"></path><path d="M1461.6 1450.6L1549 1442.6L1564 1352.2Z" fill="#1a1a1a" stroke="#1a1a1a"></path><path d="M1564 1352.2L1656.4 1416.6L1607.4 1302.2Z" fill="#1e1e1e" stroke="#1e1e1e"></path><path d="M1460.6 1545L1461.6 1450.6L1346.2 1514Z" fill="#151515" stroke="#151515"></path><path d="M635.4 1456.6L701.8 1505L724.8 1448.6Z" fill="#353535" stroke="#353535"></path><path d="M724.8 1448.6L701.8 1505L835.2 1553Z" fill="#303030" stroke="#303030"></path><path d="M943.6 1663.4L910.6 1562L788.2 1621.4Z" fill="#393939" stroke="#393939"></path><path d="M943.6 1663.4L996 1652.4L910.6 1562Z" fill="#272727" stroke="#272727"></path><path d="M1218.8 1715.8L1347.2 1644.4L1245.8 1624.4Z" fill="#101010" stroke="#101010"></path><path d="M1323.2 527L1259.8 585.4L1330.2 593.4Z" fill="#1a1a1a" stroke="#1a1a1a"></path><path d="M1323.2 527L1230.8 509L1259.8 585.4Z" fill="#222222" stroke="#222222"></path><path d="M1758.8 837.2L1615.4 804.2L1606.4 929.6Z" fill="#1e1e1e" stroke="#1e1e1e"></path><path d="M1559 794.2L1559 687.8L1429.6 726.8Z" fill="#393939" stroke="#393939"></path><path d="M510 793.2L606.4 898.6L620.4 824.2Z" fill="#272727" stroke="#272727"></path><path d="M510 793.2L528 930.6L606.4 898.6Z" fill="#3e3e3e" stroke="#3e3e3e"></path><path d="M1406.6 1636.4L1460.6 1545L1346.2 1514Z" fill="#222222" stroke="#222222"></path><path d="M528 930.6L510 1008L596.4 1034Z" fill="#151515" stroke="#151515"></path><path d="M813.2 543L713.8 624.4L816.2 641.4Z" fill="#222222" stroke="#222222"></path><path d="M702.8 714.8L608.4 706.8L620.4 824.2Z" fill="#303030" stroke="#303030"></path><path d="M1435.6 526L1323.2 527L1330.2 593.4Z" fill="#353535" stroke="#353535"></path><path d="M1435.6 526L1330.2 593.4L1401.6 633.4Z" fill="#151515" stroke="#151515"></path><path d="M1156.4 512L1014 486L1027 598.4Z" fill="#101010" stroke="#101010"></path><path d="M932.6 534L813.2 543L904.6 633.4Z" fill="#272727" stroke="#272727"></path><path d="M1129.4 423.6L1014 486L1156.4 512Z" fill="#303030" stroke="#303030"></path><path d="M599.4 1327.2L635.4 1456.6L721.8 1324.2Z" fill="#222222" stroke="#222222"></path><path d="M529 1415.6L635.4 1456.6L599.4 1327.2Z" fill="#2b2b2b" stroke="#2b2b2b"></path><path d="M1636.4 707.8L1559 687.8L1559 794.2Z" fill="#393939" stroke="#393939"></path><path d="M788.2 1621.4L910.6 1562L835.2 1553Z" fill="#101010" stroke="#101010"></path><path d="M1218.8 1715.8L1245.8 1624.4L1156.4 1627.4Z" fill="#353535" stroke="#353535"></path><path d="M950.6 438.6L813.2 543L932.6 534Z" fill="#1e1e1e" stroke="#1e1e1e"></path><path d="M440.6 1307.2L535 1306.2L537 1211.8Z" fill="#393939" stroke="#393939"></path><path d="M537 1211.8L535 1306.2L631.4 1223.8Z" fill="#2b2b2b" stroke="#2b2b2b"></path><path d="M614.4 607.4L608.4 706.8L713.8 624.4Z" fill="#3e3e3e" stroke="#3e3e3e"></path><path d="M713.8 624.4L608.4 706.8L702.8 714.8Z" fill="#353535" stroke="#353535"></path><path d="M510 1008L484 1144.4L606.4 1102.4Z" fill="#151515" stroke="#151515"></path><path d="M1050 1713.8L1156.4 1627.4L996 1652.4Z" fill="#101010" stroke="#101010"></path><path d="M1245.8 1624.4L1347.2 1644.4L1346.2 1514Z" fill="#393939" stroke="#393939"></path><path d="M1624.4 1206.8L1720.8 1096.4L1639.4 1113.4Z" fill="#1a1a1a" stroke="#1a1a1a"></path><path d="M1639.4 1113.4L1720.8 1019L1632.4 1000Z" fill="#222222" stroke="#222222"></path><path d="M1632.4 1000L1768.8 922.6L1606.4 929.6Z" fill="#3e3e3e" stroke="#3e3e3e"></path><path d="M1763.8 1237.8L1720.8 1096.4L1624.4 1206.8Z" fill="#101010" stroke="#101010"></path><path d="M1763.8 1237.8L1624.4 1206.8L1607.4 1302.2Z" fill="#151515" stroke="#151515"></path><path d="M1720.8 1096.4L1720.8 1019L1639.4 1113.4Z" fill="#3e3e3e" stroke="#3e3e3e"></path><path d="M1657.4 625.4L1522 610.4L1559 687.8Z" fill="#393939" stroke="#393939"></path><path d="M745.8 1614.4L835.2 1553L701.8 1505Z" fill="#1a1a1a" stroke="#1a1a1a"></path><path d="M745.8 1614.4L788.2 1621.4L835.2 1553Z" fill="#272727" stroke="#272727"></path><path d="M1636.4 707.8L1559 794.2L1615.4 804.2Z" fill="#1e1e1e" stroke="#1e1e1e"></path><path d="M1559 687.8L1522 610.4L1429.6 726.8Z" fill="#3e3e3e" stroke="#3e3e3e"></path><path d="M929.6 1722.8L996 1652.4L943.6 1663.4Z" fill="#3e3e3e" stroke="#3e3e3e"></path><path d="M929.6 1722.8L1050 1713.8L996 1652.4Z" fill="#101010" stroke="#101010"></path><path d="M1347.2 1644.4L1406.6 1636.4L1346.2 1514Z" fill="#151515" stroke="#151515"></path><path d="M1640.4 1542L1656.4 1416.6L1549 1442.6Z" fill="#2b2b2b" stroke="#2b2b2b"></path><path d="M1415.6 1768.8L1406.6 1636.4L1347.2 1644.4Z" fill="#1a1a1a" stroke="#1a1a1a"></path><path d="M529 1415.6L627.4 1511L635.4 1456.6Z" fill="#272727" stroke="#272727"></path><path d="M635.4 1456.6L627.4 1511L701.8 1505Z" fill="#222222" stroke="#222222"></path><path d="M612.4 1638.4L745.8 1614.4L701.8 1505Z" fill="#353535" stroke="#353535"></path><path d="M816.2 1712.8L929.6 1722.8L943.6 1663.4Z" fill="#1e1e1e" stroke="#1e1e1e"></path><path d="M1522 610.4L1435.6 526L1401.6 633.4Z" fill="#1a1a1a" stroke="#1a1a1a"></path><path d="M1248.8 404.6L1129.4 423.6L1230.8 509Z" fill="#3e3e3e" stroke="#3e3e3e"></path><path d="M1230.8 509L1129.4 423.6L1156.4 512Z" fill="#1a1a1a" stroke="#1a1a1a"></path><path d="M1050 1713.8L1140.4 1724.8L1156.4 1627.4Z" fill="#222222" stroke="#222222"></path><path d="M1140.4 1724.8L1218.8 1715.8L1156.4 1627.4Z" fill="#272727" stroke="#272727"></path><path d="M1567 1543L1549 1442.6L1460.6 1545Z" fill="#1e1e1e" stroke="#1e1e1e"></path><path d="M1549 1442.6L1656.4 1416.6L1564 1352.2Z" fill="#1a1a1a" stroke="#1a1a1a"></path><path d="M1738.8 738.8L1636.4 707.8L1615.4 804.2Z" fill="#353535" stroke="#353535"></path><path d="M1522 610.4L1562 491L1435.6 526Z" fill="#1e1e1e" stroke="#1e1e1e"></path><path d="M608.4 706.8L510 793.2L620.4 824.2Z" fill="#1e1e1e" stroke="#1e1e1e"></path><path d="M379.6 1054L403.6 1108.4L510 1008Z" fill="#3e3e3e" stroke="#3e3e3e"></path><path d="M510 1008L403.6 1108.4L484 1144.4Z" fill="#303030" stroke="#303030"></path><path d="M1325.2 436.6L1230.8 509L1323.2 527Z" fill="#2b2b2b" stroke="#2b2b2b"></path><path d="M1014 486L950.6 438.6L932.6 534Z" fill="#1a1a1a" stroke="#1a1a1a"></path><path d="M995 407.6L950.6 438.6L1014 486Z" fill="#101010" stroke="#101010"></path><path d="M1537 1666.4L1567 1543L1460.6 1545Z" fill="#222222" stroke="#222222"></path><path d="M440.6 1307.2L529 1415.6L535 1306.2Z" fill="#303030" stroke="#303030"></path><path d="M535 1306.2L529 1415.6L599.4 1327.2Z" fill="#303030" stroke="#303030"></path><path d="M816.2 1712.8L943.6 1663.4L788.2 1621.4Z" fill="#3e3e3e" stroke="#3e3e3e"></path><path d="M1050 1713.8L1109.4 1836.2L1140.4 1724.8Z" fill="#3e3e3e" stroke="#3e3e3e"></path><path d="M731.8 498L614.4 607.4L713.8 624.4Z" fill="#303030" stroke="#303030"></path><path d="M608.4 706.8L508 745.8L510 793.2Z" fill="#151515" stroke="#151515"></path><path d="M731.8 498L713.8 624.4L813.2 543Z" fill="#1a1a1a" stroke="#1a1a1a"></path><path d="M486 606.4L508 745.8L608.4 706.8Z" fill="#222222" stroke="#222222"></path><path d="M379.6 1054L510 1008L386.6 943.6Z" fill="#1e1e1e" stroke="#1e1e1e"></path><path d="M1129.4 423.6L995 407.6L1014 486Z" fill="#101010" stroke="#101010"></path><path d="M817.2 385.6L731.8 498L813.2 543Z" fill="#2b2b2b" stroke="#2b2b2b"></path><path d="M1435.6 526L1325.2 436.6L1323.2 527Z" fill="#303030" stroke="#303030"></path><path d="M1129.4 423.6L1008 322.2L995 407.6Z" fill="#1a1a1a" stroke="#1a1a1a"></path><path d="M1728.8 1423.6L1720.8 1360.2L1656.4 1416.6Z" fill="#3e3e3e" stroke="#3e3e3e"></path><path d="M1656.4 1416.6L1720.8 1360.2L1607.4 1302.2Z" fill="#303030" stroke="#303030"></path><path d="M1720.8 1360.2L1763.8 1237.8L1607.4 1302.2Z" fill="#393939" stroke="#393939"></path><path d="M1854.2 1043L1768.8 922.6L1720.8 1019Z" fill="#1a1a1a" stroke="#1a1a1a"></path><path d="M817.2 385.6L813.2 543L950.6 438.6Z" fill="#3e3e3e" stroke="#3e3e3e"></path><path d="M1854.2 1043L1720.8 1019L1720.8 1096.4Z" fill="#303030" stroke="#303030"></path><path d="M1720.8 1019L1768.8 922.6L1632.4 1000Z" fill="#393939" stroke="#393939"></path><path d="M1325.2 436.6L1248.8 404.6L1230.8 509Z" fill="#101010" stroke="#101010"></path><path d="M740.8 1758.8L816.2 1712.8L745.8 1614.4Z" fill="#1e1e1e" stroke="#1e1e1e"></path><path d="M745.8 1614.4L816.2 1712.8L788.2 1621.4Z" fill="#3e3e3e" stroke="#3e3e3e"></path><path d="M612.4 1638.4L701.8 1505L627.4 1511Z" fill="#2b2b2b" stroke="#2b2b2b"></path><path d="M436.6 809.2L528 930.6L510 793.2Z" fill="#222222" stroke="#222222"></path><path d="M400.6 1211.8L440.6 1307.2L537 1211.8Z" fill="#101010" stroke="#101010"></path><path d="M400.6 1211.8L537 1211.8L484 1144.4Z" fill="#222222" stroke="#222222"></path><path d="M1768.8 922.6L1758.8 837.2L1606.4 929.6Z" fill="#222222" stroke="#222222"></path><path d="M403.6 1108.4L400.6 1211.8L484 1144.4Z" fill="#151515" stroke="#151515"></path><path d="M1567 1543L1640.4 1542L1549 1442.6Z" fill="#353535" stroke="#353535"></path><path d="M1633.4 1619.4L1640.4 1542L1567 1543Z" fill="#393939" stroke="#393939"></path><path d="M1537 1666.4L1460.6 1545L1406.6 1636.4Z" fill="#303030" stroke="#303030"></path><path d="M411.6 710.8L436.6 809.2L508 745.8Z" fill="#272727" stroke="#272727"></path><path d="M508 745.8L436.6 809.2L510 793.2Z" fill="#2b2b2b" stroke="#2b2b2b"></path><path d="M1714.8 1528L1728.8 1423.6L1656.4 1416.6Z" fill="#353535" stroke="#353535"></path><path d="M1835.2 1314.2L1829.2 1241.8L1763.8 1237.8Z" fill="#353535" stroke="#353535"></path><path d="M386.6 943.6L510 1008L528 930.6Z" fill="#2b2b2b" stroke="#2b2b2b"></path><path d="M287.2 1146.4L336.2 1245.8L400.6 1211.8Z" fill="#2b2b2b" stroke="#2b2b2b"></path><path d="M1738.8 738.8L1657.4 625.4L1636.4 707.8Z" fill="#222222" stroke="#222222"></path><path d="M1636.4 707.8L1657.4 625.4L1559 687.8Z" fill="#222222" stroke="#222222"></path><path d="M1435.6 526L1426.6 399.6L1325.2 436.6Z" fill="#101010" stroke="#101010"></path><path d="M1200.8 1849.2L1337.2 1760.8L1218.8 1715.8Z" fill="#2b2b2b" stroke="#2b2b2b"></path><path d="M1218.8 1715.8L1337.2 1760.8L1347.2 1644.4Z" fill="#2b2b2b" stroke="#2b2b2b"></path><path d="M1200.8 1849.2L1218.8 1715.8L1140.4 1724.8Z" fill="#151515" stroke="#151515"></path><path d="M1023 1815.2L1050 1713.8L929.6 1722.8Z" fill="#3e3e3e" stroke="#3e3e3e"></path><path d="M436.6 809.2L386.6 943.6L528 930.6Z" fill="#393939" stroke="#393939"></path><path d="M1758.8 837.2L1738.8 738.8L1615.4 804.2Z" fill="#1a1a1a" stroke="#1a1a1a"></path><path d="M434.6 1411.6L529 1415.6L440.6 1307.2Z" fill="#3e3e3e" stroke="#3e3e3e"></path><path d="M434.6 1531L533 1539L529 1415.6Z" fill="#151515" stroke="#151515"></path><path d="M529 1415.6L533 1539L627.4 1511Z" fill="#2b2b2b" stroke="#2b2b2b"></path><path d="M1526 1737.8L1537 1666.4L1406.6 1636.4Z" fill="#3e3e3e" stroke="#3e3e3e"></path><path d="M950.6 1849.2L1023 1815.2L929.6 1722.8Z" fill="#393939" stroke="#393939"></path><path d="M533 1539L612.4 1638.4L627.4 1511Z" fill="#1a1a1a" stroke="#1a1a1a"></path><path d="M798.2 1823.2L950.6 1849.2L929.6 1722.8Z" fill="#393939" stroke="#393939"></path><path d="M314.2 1346.2L434.6 1411.6L440.6 1307.2Z" fill="#393939" stroke="#393939"></path><path d="M1829.2 1241.8L1841.2 1111.4L1763.8 1237.8Z" fill="#1e1e1e" stroke="#1e1e1e"></path><path d="M1763.8 1237.8L1841.2 1111.4L1720.8 1096.4Z" fill="#3e3e3e" stroke="#3e3e3e"></path><path d="M1768.8 922.6L1863.2 907.6L1758.8 837.2Z" fill="#303030" stroke="#303030"></path><path d="M1758.8 837.2L1863.2 742.8L1738.8 738.8Z" fill="#303030" stroke="#303030"></path><path d="M925.6 328.2L817.2 385.6L950.6 438.6Z" fill="#1a1a1a" stroke="#1a1a1a"></path><path d="M731.8 498L595.4 511L614.4 607.4Z" fill="#222222" stroke="#222222"></path><path d="M925.6 328.2L950.6 438.6L995 407.6Z" fill="#2b2b2b" stroke="#2b2b2b"></path><path d="M1611.4 523L1522 610.4L1657.4 625.4Z" fill="#3e3e3e" stroke="#3e3e3e"></path><path d="M1611.4 523L1562 491L1522 610.4Z" fill="#353535" stroke="#353535"></path><path d="M1325.2 436.6L1308.2 313.2L1248.8 404.6Z" fill="#3e3e3e" stroke="#3e3e3e"></path><path d="M1835.2 1314.2L1763.8 1237.8L1720.8 1360.2Z" fill="#1a1a1a" stroke="#1a1a1a"></path><path d="M1539 425.6L1426.6 399.6L1435.6 526Z" fill="#222222" stroke="#222222"></path><path d="M1120.4 301.2L1008 322.2L1129.4 423.6Z" fill="#101010" stroke="#101010"></path><path d="M1715.8 480L1611.4 523L1657.4 625.4Z" fill="#1e1e1e" stroke="#1e1e1e"></path><path d="M1562 491L1539 425.6L1435.6 526Z" fill="#1e1e1e" stroke="#1e1e1e"></path><path d="M1923.6 995L1854.2 1043L1933.6 1098.4Z" fill="#3e3e3e" stroke="#3e3e3e"></path><path d="M1841.2 1111.4L1854.2 1043L1720.8 1096.4Z" fill="#3e3e3e" stroke="#3e3e3e"></path><path d="M593.4 431.6L595.4 511L731.8 498Z" fill="#393939" stroke="#393939"></path><path d="M614.4 607.4L486 606.4L608.4 706.8Z" fill="#303030" stroke="#303030"></path><path d="M1023 1815.2L1109.4 1836.2L1050 1713.8Z" fill="#151515" stroke="#151515"></path><path d="M1345.2 1826.2L1415.6 1768.8L1337.2 1760.8Z" fill="#101010" stroke="#101010"></path><path d="M1337.2 1760.8L1415.6 1768.8L1347.2 1644.4Z" fill="#2b2b2b" stroke="#2b2b2b"></path><path d="M1120.4 301.2L1129.4 423.6L1248.8 404.6Z" fill="#151515" stroke="#151515"></path><path d="M1654.4 1740.8L1633.4 1619.4L1537 1666.4Z" fill="#1e1e1e" stroke="#1e1e1e"></path><path d="M1537 1666.4L1633.4 1619.4L1567 1543Z" fill="#222222" stroke="#222222"></path><path d="M1640.4 1542L1714.8 1528L1656.4 1416.6Z" fill="#1a1a1a" stroke="#1a1a1a"></path><path d="M1846.2 1421.6L1835.2 1314.2L1720.8 1360.2Z" fill="#1a1a1a" stroke="#1a1a1a"></path><path d="M284.2 911.6L337.2 1037L386.6 943.6Z" fill="#2b2b2b" stroke="#2b2b2b"></path><path d="M386.6 943.6L337.2 1037L379.6 1054Z" fill="#1a1a1a" stroke="#1a1a1a"></path><path d="M379.6 1054L287.2 1146.4L403.6 1108.4Z" fill="#1e1e1e" stroke="#1e1e1e"></path><path d="M400.6 1211.8L336.2 1245.8L440.6 1307.2Z" fill="#303030" stroke="#303030"></path><path d="M1633.4 1619.4L1714.8 1528L1640.4 1542Z" fill="#101010" stroke="#101010"></path><path d="M618.4 1716.8L740.8 1758.8L745.8 1614.4Z" fill="#2b2b2b" stroke="#2b2b2b"></path><path d="M1022 1949.6L1103.4 1947.6L1109.4 1836.2Z" fill="#393939" stroke="#393939"></path><path d="M1008 322.2L925.6 328.2L995 407.6Z" fill="#3e3e3e" stroke="#3e3e3e"></path><path d="M841.2 278.2L741.8 393.6L817.2 385.6Z" fill="#3e3e3e" stroke="#3e3e3e"></path><path d="M817.2 385.6L741.8 393.6L731.8 498Z" fill="#353535" stroke="#353535"></path><path d="M510 537L486 606.4L614.4 607.4Z" fill="#303030" stroke="#303030"></path><path d="M303.2 800.2L284.2 911.6L386.6 943.6Z" fill="#1a1a1a" stroke="#1a1a1a"></path><path d="M1846.2 1421.6L1720.8 1360.2L1728.8 1423.6Z" fill="#393939" stroke="#393939"></path><path d="M1933.6 1098.4L1854.2 1043L1841.2 1111.4Z" fill="#1a1a1a" stroke="#1a1a1a"></path><path d="M1252.8 277.2L1120.4 301.2L1248.8 404.6Z" fill="#393939" stroke="#393939"></path><path d="M929.6 227.8L841.2 278.2L925.6 328.2Z" fill="#222222" stroke="#222222"></path><path d="M1109.4 1836.2L1200.8 1849.2L1140.4 1724.8Z" fill="#1a1a1a" stroke="#1a1a1a"></path><path d="M486 606.4L411.6 710.8L508 745.8Z" fill="#222222" stroke="#222222"></path><path d="M287.2 1146.4L400.6 1211.8L403.6 1108.4Z" fill="#353535" stroke="#353535"></path><path d="M1854.2 1043L1863.2 907.6L1768.8 922.6Z" fill="#2b2b2b" stroke="#2b2b2b"></path><path d="M1738.8 738.8L1758.8 620.4L1657.4 625.4Z" fill="#3e3e3e" stroke="#3e3e3e"></path><path d="M798.2 1823.2L929.6 1722.8L816.2 1712.8Z" fill="#303030" stroke="#303030"></path><path d="M1109.4 1836.2L1103.4 1947.6L1200.8 1849.2Z" fill="#393939" stroke="#393939"></path><path d="M1415.6 1768.8L1526 1737.8L1406.6 1636.4Z" fill="#101010" stroke="#101010"></path><path d="M1422.6 1824.2L1526 1737.8L1415.6 1768.8Z" fill="#151515" stroke="#151515"></path><path d="M1631.4 402.6L1539 425.6L1562 491Z" fill="#393939" stroke="#393939"></path><path d="M1426.6 399.6L1308.2 313.2L1325.2 436.6Z" fill="#3e3e3e" stroke="#3e3e3e"></path><path d="M1200.8 1849.2L1345.2 1826.2L1337.2 1760.8Z" fill="#1a1a1a" stroke="#1a1a1a"></path><path d="M1435.6 290.2L1308.2 313.2L1426.6 399.6Z" fill="#222222" stroke="#222222"></path><path d="M507 1622.4L618.4 1716.8L612.4 1638.4Z" fill="#222222" stroke="#222222"></path><path d="M612.4 1638.4L618.4 1716.8L745.8 1614.4Z" fill="#303030" stroke="#303030"></path><path d="M740.8 1758.8L798.2 1823.2L816.2 1712.8Z" fill="#3e3e3e" stroke="#3e3e3e"></path><path d="M507 1622.4L612.4 1638.4L533 1539Z" fill="#3e3e3e" stroke="#3e3e3e"></path><path d="M595.4 511L510 537L614.4 607.4Z" fill="#393939" stroke="#393939"></path><path d="M486 606.4L410.6 620.4L411.6 710.8Z" fill="#1a1a1a" stroke="#1a1a1a"></path><path d="M526 440.6L510 537L595.4 511Z" fill="#1a1a1a" stroke="#1a1a1a"></path><path d="M1828.2 623.4L1758.8 620.4L1738.8 738.8Z" fill="#101010" stroke="#101010"></path><path d="M1611.4 523L1631.4 402.6L1562 491Z" fill="#222222" stroke="#222222"></path><path d="M698.8 1836.2L798.2 1823.2L740.8 1758.8Z" fill="#303030" stroke="#303030"></path><path d="M434.6 1411.6L434.6 1531L529 1415.6Z" fill="#1e1e1e" stroke="#1e1e1e"></path><path d="M316.2 1433.6L434.6 1531L434.6 1411.6Z" fill="#222222" stroke="#222222"></path><path d="M434.6 1531L507 1622.4L533 1539Z" fill="#1e1e1e" stroke="#1e1e1e"></path><path d="M1863.2 907.6L1863.2 825.2L1758.8 837.2Z" fill="#393939" stroke="#393939"></path><path d="M1359.2 1945.6L1422.6 1824.2L1345.2 1826.2Z" fill="#303030" stroke="#303030"></path><path d="M1345.2 1826.2L1422.6 1824.2L1415.6 1768.8Z" fill="#222222" stroke="#222222"></path><path d="M337.2 1037L287.2 1146.4L379.6 1054Z" fill="#101010" stroke="#101010"></path><path d="M336.2 1245.8L314.2 1346.2L440.6 1307.2Z" fill="#2b2b2b" stroke="#2b2b2b"></path><path d="M215.8 1051L287.2 1146.4L337.2 1037Z" fill="#272727" stroke="#272727"></path><path d="M1347.2 232.8L1252.8 277.2L1308.2 313.2Z" fill="#222222" stroke="#222222"></path><path d="M1308.2 313.2L1252.8 277.2L1248.8 404.6Z" fill="#272727" stroke="#272727"></path><path d="M929.6 227.8L925.6 328.2L1008 322.2Z" fill="#303030" stroke="#303030"></path><path d="M741.8 393.6L593.4 431.6L731.8 498Z" fill="#1a1a1a" stroke="#1a1a1a"></path><path d="M628.4 327.2L593.4 431.6L741.8 393.6Z" fill="#101010" stroke="#101010"></path><path d="M1830.2 1511L1728.8 1423.6L1714.8 1528Z" fill="#303030" stroke="#303030"></path><path d="M1830.2 1511L1846.2 1421.6L1728.8 1423.6Z" fill="#303030" stroke="#303030"></path><path d="M1933.6 1098.4L1841.2 1111.4L1945.6 1253.8Z" fill="#303030" stroke="#303030"></path><path d="M1854.2 1043L1923.6 995L1863.2 907.6Z" fill="#151515" stroke="#151515"></path><path d="M1739.8 1628.4L1714.8 1528L1633.4 1619.4Z" fill="#272727" stroke="#272727"></path><path d="M330.2 588.4L410.6 620.4L387.6 487Z" fill="#1e1e1e" stroke="#1e1e1e"></path><path d="M510 537L410.6 620.4L486 606.4Z" fill="#1e1e1e" stroke="#1e1e1e"></path><path d="M303.2 800.2L386.6 943.6L436.6 809.2Z" fill="#2b2b2b" stroke="#2b2b2b"></path><path d="M226.8 1326.2L314.2 1346.2L336.2 1245.8Z" fill="#101010" stroke="#101010"></path><path d="M1841.2 1111.4L1829.2 1241.8L1945.6 1253.8Z" fill="#1e1e1e" stroke="#1e1e1e"></path><path d="M1863.2 907.6L1919.6 830.2L1863.2 825.2Z" fill="#272727" stroke="#272727"></path><path d="M303.2 800.2L436.6 809.2L411.6 710.8Z" fill="#101010" stroke="#101010"></path><path d="M1863.2 825.2L1863.2 742.8L1758.8 837.2Z" fill="#1a1a1a" stroke="#1a1a1a"></path><path d="M1919.6 830.2L1863.2 742.8L1863.2 825.2Z" fill="#3e3e3e" stroke="#3e3e3e"></path><path d="M1945.6 1253.8L1829.2 1241.8L1835.2 1314.2Z" fill="#303030" stroke="#303030"></path><path d="M1016 221.8L1008 322.2L1120.4 301.2Z" fill="#272727" stroke="#272727"></path><path d="M925.6 328.2L841.2 278.2L817.2 385.6Z" fill="#151515" stroke="#151515"></path><path d="M276.2 736.8L303.2 800.2L411.6 710.8Z" fill="#3e3e3e" stroke="#3e3e3e"></path><path d="M1654.4 1740.8L1739.8 1628.4L1633.4 1619.4Z" fill="#222222" stroke="#222222"></path><path d="M1654.4 1740.8L1537 1666.4L1526 1737.8Z" fill="#303030" stroke="#303030"></path><path d="M1739.8 1628.4L1830.2 1511L1714.8 1528Z" fill="#353535" stroke="#353535"></path><path d="M1954.6 1352.2L1945.6 1253.8L1835.2 1314.2Z" fill="#3e3e3e" stroke="#3e3e3e"></path><path d="M593.4 431.6L526 440.6L595.4 511Z" fill="#151515" stroke="#151515"></path><path d="M541 316.2L526 440.6L593.4 431.6Z" fill="#303030" stroke="#303030"></path><path d="M1561 326.2L1435.6 290.2L1426.6 399.6Z" fill="#151515" stroke="#151515"></path><path d="M1561 326.2L1426.6 399.6L1539 425.6Z" fill="#1a1a1a" stroke="#1a1a1a"></path><path d="M618.4 1716.8L698.8 1836.2L740.8 1758.8Z" fill="#2b2b2b" stroke="#2b2b2b"></path><path d="M1022 1949.6L1023 1815.2L950.6 1849.2Z" fill="#222222" stroke="#222222"></path><path d="M619.4 1865.2L698.8 1836.2L618.4 1716.8Z" fill="#353535" stroke="#353535"></path><path d="M1963.6 941.6L1863.2 907.6L1923.6 995Z" fill="#2b2b2b" stroke="#2b2b2b"></path><path d="M1963.6 941.6L1919.6 830.2L1863.2 907.6Z" fill="#1a1a1a" stroke="#1a1a1a"></path><path d="M206.8 1430.6L316.2 1433.6L314.2 1346.2Z" fill="#222222" stroke="#222222"></path><path d="M314.2 1346.2L316.2 1433.6L434.6 1411.6Z" fill="#1e1e1e" stroke="#1e1e1e"></path><path d="M399.6 1642.4L482 1727.8L507 1622.4Z" fill="#151515" stroke="#151515"></path><path d="M507 1622.4L482 1727.8L618.4 1716.8Z" fill="#1a1a1a" stroke="#1a1a1a"></path><path d="M1819.2 485L1715.8 480L1758.8 620.4Z" fill="#353535" stroke="#353535"></path><path d="M1758.8 620.4L1715.8 480L1657.4 625.4Z" fill="#151515" stroke="#151515"></path><path d="M1828.2 623.4L1738.8 738.8L1863.2 742.8Z" fill="#2b2b2b" stroke="#2b2b2b"></path><path d="M1949.6 719.8L1828.2 623.4L1863.2 742.8Z" fill="#1e1e1e" stroke="#1e1e1e"></path><path d="M1131.4 217.8L1120.4 301.2L1252.8 277.2Z" fill="#101010" stroke="#101010"></path><path d="M1131.4 217.8L1016 221.8L1120.4 301.2Z" fill="#222222" stroke="#222222"></path><path d="M1715.8 480L1631.4 402.6L1611.4 523Z" fill="#303030" stroke="#303030"></path><path d="M1250.8 180.8L1131.4 217.8L1252.8 277.2Z" fill="#353535" stroke="#353535"></path><path d="M1533 1928.6L1547 1813.2L1422.6 1824.2Z" fill="#303030" stroke="#303030"></path><path d="M1422.6 1824.2L1547 1813.2L1526 1737.8Z" fill="#393939" stroke="#393939"></path><path d="M1547 1813.2L1654.4 1740.8L1526 1737.8Z" fill="#353535" stroke="#353535"></path><path d="M1937.6 1463.6L1846.2 1421.6L1830.2 1511Z" fill="#3e3e3e" stroke="#3e3e3e"></path><path d="M1954.6 1352.2L1835.2 1314.2L1846.2 1421.6Z" fill="#2b2b2b" stroke="#2b2b2b"></path><path d="M2048 1027L1963.6 941.6L1923.6 995Z" fill="#393939" stroke="#393939"></path><path d="M1016 221.8L929.6 227.8L1008 322.2Z" fill="#353535" stroke="#353535"></path><path d="M684.8 287.2L628.4 327.2L741.8 393.6Z" fill="#151515" stroke="#151515"></path><path d="M1022 1949.6L1109.4 1836.2L1023 1815.2Z" fill="#3e3e3e" stroke="#3e3e3e"></path><path d="M1256.8 1970.6L1359.2 1945.6L1345.2 1826.2Z" fill="#1a1a1a" stroke="#1a1a1a"></path><path d="M1022 1949.6L950.6 1849.2L920.6 1951.6Z" fill="#272727" stroke="#272727"></path><path d="M846.2 1926.6L950.6 1849.2L798.2 1823.2Z" fill="#3e3e3e" stroke="#3e3e3e"></path><path d="M2048 1027L1923.6 995L1933.6 1098.4Z" fill="#101010" stroke="#101010"></path><path d="M1450.6 202.8L1347.2 232.8L1435.6 290.2Z" fill="#101010" stroke="#101010"></path><path d="M1435.6 290.2L1347.2 232.8L1308.2 313.2Z" fill="#1a1a1a" stroke="#1a1a1a"></path><path d="M1618.4 337.2L1561 326.2L1631.4 402.6Z" fill="#393939" stroke="#393939"></path><path d="M1631.4 402.6L1561 326.2L1539 425.6Z" fill="#3e3e3e" stroke="#3e3e3e"></path><path d="M183.8 909.6L215.8 1051L284.2 911.6Z" fill="#353535" stroke="#353535"></path><path d="M284.2 911.6L215.8 1051L337.2 1037Z" fill="#3e3e3e" stroke="#3e3e3e"></path><path d="M287.2 1146.4L211.8 1208.8L336.2 1245.8Z" fill="#151515" stroke="#151515"></path><path d="M693.8 1923.6L846.2 1926.6L798.2 1823.2Z" fill="#222222" stroke="#222222"></path><path d="M684.8 287.2L741.8 393.6L841.2 278.2Z" fill="#353535" stroke="#353535"></path><path d="M330.2 588.4L276.2 736.8L411.6 710.8Z" fill="#353535" stroke="#353535"></path><path d="M303.2 800.2L219.8 804.2L284.2 911.6Z" fill="#2b2b2b" stroke="#2b2b2b"></path><path d="M330.2 588.4L411.6 710.8L410.6 620.4Z" fill="#2b2b2b" stroke="#2b2b2b"></path><path d="M846.2 1926.6L920.6 1951.6L950.6 1849.2Z" fill="#1e1e1e" stroke="#1e1e1e"></path><path d="M710.8 211.8L684.8 287.2L841.2 278.2Z" fill="#393939" stroke="#393939"></path><path d="M399.6 1642.4L507 1622.4L434.6 1531Z" fill="#101010" stroke="#101010"></path><path d="M698.8 1836.2L693.8 1923.6L798.2 1823.2Z" fill="#3e3e3e" stroke="#3e3e3e"></path><path d="M189.8 1111.4L211.8 1208.8L287.2 1146.4Z" fill="#1a1a1a" stroke="#1a1a1a"></path><path d="M279.2 1550L399.6 1642.4L434.6 1531Z" fill="#101010" stroke="#101010"></path><path d="M279.2 1550L434.6 1531L316.2 1433.6Z" fill="#393939" stroke="#393939"></path><path d="M1937.6 1463.6L1954.6 1352.2L1846.2 1421.6Z" fill="#151515" stroke="#151515"></path><path d="M2048 1153.4L2048 1027L1933.6 1098.4Z" fill="#353535" stroke="#353535"></path><path d="M1826.2 1630.4L1830.2 1511L1739.8 1628.4Z" fill="#393939" stroke="#393939"></path><path d="M929.6 119.4L831.2 214.8L929.6 227.8Z" fill="#303030" stroke="#303030"></path><path d="M929.6 227.8L831.2 214.8L841.2 278.2Z" fill="#353535" stroke="#353535"></path><path d="M929.6 119.4L929.6 227.8L1016 221.8Z" fill="#393939" stroke="#393939"></path><path d="M1737.8 427.6L1631.4 402.6L1715.8 480Z" fill="#303030" stroke="#303030"></path><path d="M1730.8 321.2L1618.4 337.2L1631.4 402.6Z" fill="#222222" stroke="#222222"></path><path d="M1561 326.2L1507 227.8L1435.6 290.2Z" fill="#101010" stroke="#101010"></path><path d="M1256.8 1970.6L1200.8 1849.2L1103.4 1947.6Z" fill="#303030" stroke="#303030"></path><path d="M1256.8 1970.6L1345.2 1826.2L1200.8 1849.2Z" fill="#393939" stroke="#393939"></path><path d="M1547 1813.2L1613.4 1824.2L1654.4 1740.8Z" fill="#393939" stroke="#393939"></path><path d="M1256.8 1970.6L1103.4 1947.6L1155.4 2048Z" fill="#1a1a1a" stroke="#1a1a1a"></path><path d="M211.8 1208.8L226.8 1326.2L336.2 1245.8Z" fill="#303030" stroke="#303030"></path><path d="M1054 2048L1103.4 1947.6L1022 1949.6Z" fill="#393939" stroke="#393939"></path><path d="M1533 1928.6L1613.4 1824.2L1547 1813.2Z" fill="#1e1e1e" stroke="#1e1e1e"></path><path d="M1654.4 1740.8L1733.8 1731.8L1739.8 1628.4Z" fill="#3e3e3e" stroke="#3e3e3e"></path><path d="M215.8 1051L189.8 1111.4L287.2 1146.4Z" fill="#3e3e3e" stroke="#3e3e3e"></path><path d="M120.4 1318.2L206.8 1430.6L226.8 1326.2Z" fill="#222222" stroke="#222222"></path><path d="M132.4 1039L189.8 1111.4L215.8 1051Z" fill="#1e1e1e" stroke="#1e1e1e"></path><path d="M1342.2 120.4L1250.8 180.8L1347.2 232.8Z" fill="#222222" stroke="#222222"></path><path d="M1347.2 232.8L1250.8 180.8L1252.8 277.2Z" fill="#2b2b2b" stroke="#2b2b2b"></path><path d="M1131.4 217.8L1018 116.4L1016 221.8Z" fill="#272727" stroke="#272727"></path><path d="M387.6 487L510 537L526 440.6Z" fill="#2b2b2b" stroke="#2b2b2b"></path><path d="M387.6 487L410.6 620.4L510 537Z" fill="#101010" stroke="#101010"></path><path d="M1716.8 1847.2L1733.8 1731.8L1654.4 1740.8Z" fill="#2b2b2b" stroke="#2b2b2b"></path><path d="M1819.2 485L1737.8 427.6L1715.8 480Z" fill="#222222" stroke="#222222"></path><path d="M1733.8 1731.8L1826.2 1630.4L1739.8 1628.4Z" fill="#1e1e1e" stroke="#1e1e1e"></path><path d="M197.8 746.8L219.8 804.2L276.2 736.8Z" fill="#3e3e3e" stroke="#3e3e3e"></path><path d="M276.2 736.8L219.8 804.2L303.2 800.2Z" fill="#101010" stroke="#101010"></path><path d="M527 1829.2L619.4 1865.2L618.4 1716.8Z" fill="#1a1a1a" stroke="#1a1a1a"></path><path d="M846.2 1926.6L901.6 2048L920.6 1951.6Z" fill="#353535" stroke="#353535"></path><path d="M1919.6 830.2L1949.6 719.8L1863.2 742.8Z" fill="#222222" stroke="#222222"></path><path d="M1828.2 623.4L1819.2 485L1758.8 620.4Z" fill="#1e1e1e" stroke="#1e1e1e"></path><path d="M2048 836.2L1949.6 719.8L1919.6 830.2Z" fill="#101010" stroke="#101010"></path><path d="M1921.6 1529L1937.6 1463.6L1830.2 1511Z" fill="#101010" stroke="#101010"></path><path d="M432.6 384.6L387.6 487L526 440.6Z" fill="#1a1a1a" stroke="#1a1a1a"></path><path d="M541 316.2L593.4 431.6L628.4 327.2Z" fill="#272727" stroke="#272727"></path><path d="M219.8 804.2L183.8 909.6L284.2 911.6Z" fill="#1a1a1a" stroke="#1a1a1a"></path><path d="M1943.6 609.4L1819.2 485L1828.2 623.4Z" fill="#2b2b2b" stroke="#2b2b2b"></path><path d="M1643.4 234.8L1561 326.2L1618.4 337.2Z" fill="#1e1e1e" stroke="#1e1e1e"></path><path d="M619.4 1865.2L693.8 1923.6L698.8 1836.2Z" fill="#1e1e1e" stroke="#1e1e1e"></path><path d="M1937.6 1463.6L1921.6 1529L2048 1513Z" fill="#1e1e1e" stroke="#1e1e1e"></path><path d="M1826.2 1630.4L1921.6 1529L1830.2 1511Z" fill="#222222" stroke="#222222"></path><path d="M1643.4 234.8L1507 227.8L1561 326.2Z" fill="#222222" stroke="#222222"></path><path d="M1730.8 321.2L1631.4 402.6L1737.8 427.6Z" fill="#101010" stroke="#101010"></path><path d="M1507 227.8L1450.6 202.8L1435.6 290.2Z" fill="#222222" stroke="#222222"></path><path d="M618.4 221.8L628.4 327.2L684.8 287.2Z" fill="#2b2b2b" stroke="#2b2b2b"></path><path d="M618.4 221.8L541 316.2L628.4 327.2Z" fill="#151515" stroke="#151515"></path><path d="M428.6 1771.8L527 1829.2L482 1727.8Z" fill="#272727" stroke="#272727"></path><path d="M482 1727.8L527 1829.2L618.4 1716.8Z" fill="#303030" stroke="#303030"></path><path d="M619.4 1865.2L615.4 1941.6L693.8 1923.6Z" fill="#222222" stroke="#222222"></path><path d="M206.8 1430.6L279.2 1550L316.2 1433.6Z" fill="#222222" stroke="#222222"></path><path d="M399.6 1642.4L428.6 1771.8L482 1727.8Z" fill="#393939" stroke="#393939"></path><path d="M831.2 214.8L710.8 211.8L841.2 278.2Z" fill="#1a1a1a" stroke="#1a1a1a"></path><path d="M725.8 90.4L710.8 211.8L831.2 214.8Z" fill="#1a1a1a" stroke="#1a1a1a"></path><path d="M2048 1153.4L1945.6 1253.8L2048 1207.8Z" fill="#272727" stroke="#272727"></path><path d="M2048 1153.4L1933.6 1098.4L1945.6 1253.8Z" fill="#1e1e1e" stroke="#1e1e1e"></path><path d="M1963.6 941.6L2048 894.6L1919.6 830.2Z" fill="#2b2b2b" stroke="#2b2b2b"></path><path d="M1945.6 1253.8L2048 1347.2L2048 1207.8Z" fill="#1e1e1e" stroke="#1e1e1e"></path><path d="M1945.6 1253.8L1954.6 1352.2L2048 1347.2Z" fill="#3e3e3e" stroke="#3e3e3e"></path><path d="M1613.4 1824.2L1716.8 1847.2L1654.4 1740.8Z" fill="#101010" stroke="#101010"></path><path d="M1444.6 1969.6L1533 1928.6L1422.6 1824.2Z" fill="#393939" stroke="#393939"></path><path d="M1444.6 1969.6L1422.6 1824.2L1359.2 1945.6Z" fill="#272727" stroke="#272727"></path><path d="M1437.6 2048L1444.6 1969.6L1359.2 1945.6Z" fill="#2b2b2b" stroke="#2b2b2b"></path><path d="M2048 1347.2L1954.6 1352.2L2048 1461.6Z" fill="#101010" stroke="#101010"></path><path d="M112.4 1242.8L226.8 1326.2L211.8 1208.8Z" fill="#151515" stroke="#151515"></path><path d="M226.8 1326.2L206.8 1430.6L314.2 1346.2Z" fill="#2b2b2b" stroke="#2b2b2b"></path><path d="M229.8 616.4L197.8 746.8L276.2 736.8Z" fill="#393939" stroke="#393939"></path><path d="M95.4 799.2L97.4 895.6L183.8 909.6Z" fill="#353535" stroke="#353535"></path><path d="M229.8 616.4L276.2 736.8L330.2 588.4Z" fill="#353535" stroke="#353535"></path><path d="M541 316.2L432.6 384.6L526 440.6Z" fill="#272727" stroke="#272727"></path><path d="M387.6 487L308.2 526L330.2 588.4Z" fill="#222222" stroke="#222222"></path><path d="M1227.8 94.4L1127.4 115.4L1250.8 180.8Z" fill="#3e3e3e" stroke="#3e3e3e"></path><path d="M1250.8 180.8L1127.4 115.4L1131.4 217.8Z" fill="#3e3e3e" stroke="#3e3e3e"></path><path d="M296.2 435.6L308.2 526L387.6 487Z" fill="#393939" stroke="#393939"></path><path d="M283.2 1734.8L428.6 1771.8L399.6 1642.4Z" fill="#1e1e1e" stroke="#1e1e1e"></path><path d="M1127.4 115.4L1018 116.4L1131.4 217.8Z" fill="#353535" stroke="#353535"></path><path d="M1949.6 719.8L1943.6 609.4L1828.2 623.4Z" fill="#1e1e1e" stroke="#1e1e1e"></path><path d="M2048 631.4L1943.6 609.4L1949.6 719.8Z" fill="#101010" stroke="#101010"></path><path d="M97.4 895.6L132.4 1039L183.8 909.6Z" fill="#3e3e3e" stroke="#3e3e3e"></path><path d="M183.8 909.6L132.4 1039L215.8 1051Z" fill="#2b2b2b" stroke="#2b2b2b"></path><path d="M189.8 1111.4L113.4 1121.4L211.8 1208.8Z" fill="#272727" stroke="#272727"></path><path d="M2048 1027L2048 894.6L1963.6 941.6Z" fill="#272727" stroke="#272727"></path><path d="M901.6 2048L1022 1949.6L920.6 1951.6Z" fill="#393939" stroke="#393939"></path><path d="M901.6 2048L1054 2048L1022 1949.6Z" fill="#353535" stroke="#353535"></path><path d="M1256.8 1970.6L1337.2 2048L1359.2 1945.6Z" fill="#151515" stroke="#151515"></path><path d="M1054 2048L1155.4 2048L1103.4 1947.6Z" fill="#3e3e3e" stroke="#3e3e3e"></path><path d="M1018 116.4L929.6 119.4L1016 221.8Z" fill="#151515" stroke="#151515"></path><path d="M1155.4 2048L1224.8 2048L1256.8 1970.6Z" fill="#2b2b2b" stroke="#2b2b2b"></path><path d="M2048 894.6L2048 836.2L1919.6 830.2Z" fill="#3e3e3e" stroke="#3e3e3e"></path><path d="M710.8 211.8L618.4 221.8L684.8 287.2Z" fill="#1a1a1a" stroke="#1a1a1a"></path><path d="M541 316.2L432.6 310.2L432.6 384.6Z" fill="#101010" stroke="#101010"></path><path d="M644.4 78.4L618.4 221.8L710.8 211.8Z" fill="#1e1e1e" stroke="#1e1e1e"></path><path d="M308.2 526L229.8 616.4L330.2 588.4Z" fill="#222222" stroke="#222222"></path><path d="M0 1139.4L113.4 1121.4L0 1009Z" fill="#353535" stroke="#353535"></path><path d="M132.4 1039L113.4 1121.4L189.8 1111.4Z" fill="#353535" stroke="#353535"></path><path d="M1868.2 412.6L1737.8 427.6L1819.2 485Z" fill="#2b2b2b" stroke="#2b2b2b"></path><path d="M1868.2 412.6L1730.8 321.2L1737.8 427.6Z" fill="#2b2b2b" stroke="#2b2b2b"></path><path d="M1406.6 116.4L1347.2 232.8L1450.6 202.8Z" fill="#353535" stroke="#353535"></path><path d="M2048 1461.6L1954.6 1352.2L1937.6 1463.6Z" fill="#222222" stroke="#222222"></path><path d="M1663.4 1919.6L1613.4 1824.2L1533 1928.6Z" fill="#151515" stroke="#151515"></path><path d="M1663.4 1919.6L1716.8 1847.2L1613.4 1824.2Z" fill="#151515" stroke="#151515"></path><path d="M1733.8 1731.8L1856.2 1768.8L1826.2 1630.4Z" fill="#2b2b2b" stroke="#2b2b2b"></path><path d="M2048 1513L2048 1461.6L1937.6 1463.6Z" fill="#1a1a1a" stroke="#1a1a1a"></path><path d="M1406.6 116.4L1450.6 202.8L1519 80.4Z" fill="#353535" stroke="#353535"></path><path d="M1406.6 116.4L1342.2 120.4L1347.2 232.8Z" fill="#353535" stroke="#353535"></path><path d="M536 1944.6L615.4 1941.6L619.4 1865.2Z" fill="#353535" stroke="#353535"></path><path d="M788.2 2048L901.6 2048L846.2 1926.6Z" fill="#101010" stroke="#101010"></path><path d="M536 1944.6L619.4 1865.2L527 1829.2Z" fill="#1e1e1e" stroke="#1e1e1e"></path><path d="M788.2 2048L846.2 1926.6L693.8 1923.6Z" fill="#1e1e1e" stroke="#1e1e1e"></path><path d="M1342.2 120.4L1227.8 94.4L1250.8 180.8Z" fill="#1e1e1e" stroke="#1e1e1e"></path><path d="M1127.4 115.4L1110.4 0L1018 116.4Z" fill="#2b2b2b" stroke="#2b2b2b"></path><path d="M944.6 0L838.2 102.4L929.6 119.4Z" fill="#353535" stroke="#353535"></path><path d="M1224.8 2048L1337.2 2048L1256.8 1970.6Z" fill="#1a1a1a" stroke="#1a1a1a"></path><path d="M1606.4 2048L1663.4 1919.6L1533 1928.6Z" fill="#393939" stroke="#393939"></path><path d="M113.4 1121.4L112.4 1242.8L211.8 1208.8Z" fill="#353535" stroke="#353535"></path><path d="M279.2 1550L279.2 1655.4L399.6 1642.4Z" fill="#2b2b2b" stroke="#2b2b2b"></path><path d="M428.6 1771.8L424.6 1826.2L527 1829.2Z" fill="#272727" stroke="#272727"></path><path d="M213.8 1664.4L279.2 1655.4L279.2 1550Z" fill="#2b2b2b" stroke="#2b2b2b"></path><path d="M192.8 1549L279.2 1550L206.8 1430.6Z" fill="#2b2b2b" stroke="#2b2b2b"></path><path d="M1730.8 321.2L1643.4 234.8L1618.4 337.2Z" fill="#272727" stroke="#272727"></path><path d="M276.2 1813.2L424.6 1826.2L428.6 1771.8Z" fill="#151515" stroke="#151515"></path><path d="M112.4 1242.8L120.4 1318.2L226.8 1326.2Z" fill="#303030" stroke="#303030"></path><path d="M944.6 0L929.6 119.4L1018 116.4Z" fill="#151515" stroke="#151515"></path><path d="M929.6 119.4L838.2 102.4L831.2 214.8Z" fill="#1e1e1e" stroke="#1e1e1e"></path><path d="M1519 80.4L1450.6 202.8L1507 227.8Z" fill="#3e3e3e" stroke="#3e3e3e"></path><path d="M1244.8 0L1110.4 0L1227.8 94.4Z" fill="#1a1a1a" stroke="#1a1a1a"></path><path d="M1508 2048L1533 1928.6L1444.6 1969.6Z" fill="#393939" stroke="#393939"></path><path d="M2048 836.2L2048 716.8L1949.6 719.8Z" fill="#1a1a1a" stroke="#1a1a1a"></path><path d="M1951.6 493L1868.2 412.6L1819.2 485Z" fill="#272727" stroke="#272727"></path><path d="M432.6 384.6L296.2 435.6L387.6 487Z" fill="#1e1e1e" stroke="#1e1e1e"></path><path d="M308.2 526L218.8 500L229.8 616.4Z" fill="#272727" stroke="#272727"></path><path d="M511 176.8L432.6 310.2L541 316.2Z" fill="#272727" stroke="#272727"></path><path d="M511 176.8L541 316.2L618.4 221.8Z" fill="#151515" stroke="#151515"></path><path d="M95.4 799.2L219.8 804.2L197.8 746.8Z" fill="#1a1a1a" stroke="#1a1a1a"></path><path d="M95.4 799.2L183.8 909.6L219.8 804.2Z" fill="#272727" stroke="#272727"></path><path d="M0 1300.2L120.4 1318.2L112.4 1242.8Z" fill="#222222" stroke="#222222"></path><path d="M1951.6 493L1819.2 485L1943.6 609.4Z" fill="#101010" stroke="#101010"></path><path d="M1730.8 321.2L1728.8 204.8L1643.4 234.8Z" fill="#3e3e3e" stroke="#3e3e3e"></path><path d="M747.8 2048L693.8 1923.6L640.4 2048Z" fill="#1e1e1e" stroke="#1e1e1e"></path><path d="M747.8 2048L788.2 2048L693.8 1923.6Z" fill="#353535" stroke="#353535"></path><path d="M125.4 1543L192.8 1549L206.8 1430.6Z" fill="#353535" stroke="#353535"></path><path d="M1856.2 1768.8L1733.8 1731.8L1834.2 1813.2Z" fill="#303030" stroke="#303030"></path><path d="M1955.6 1650.4L1921.6 1529L1826.2 1630.4Z" fill="#1e1e1e" stroke="#1e1e1e"></path><path d="M1834.2 1813.2L1733.8 1731.8L1716.8 1847.2Z" fill="#1a1a1a" stroke="#1a1a1a"></path><path d="M306.2 333.2L296.2 435.6L432.6 384.6Z" fill="#303030" stroke="#303030"></path><path d="M89.4 715.8L95.4 799.2L197.8 746.8Z" fill="#272727" stroke="#272727"></path><path d="M1337.2 2048L1437.6 2048L1359.2 1945.6Z" fill="#303030" stroke="#303030"></path><path d="M1856.2 1768.8L1955.6 1650.4L1826.2 1630.4Z" fill="#1a1a1a" stroke="#1a1a1a"></path><path d="M640.4 2048L693.8 1923.6L615.4 1941.6Z" fill="#222222" stroke="#222222"></path><path d="M424.6 1826.2L536 1944.6L527 1829.2Z" fill="#101010" stroke="#101010"></path><path d="M2048 535L1951.6 493L1943.6 609.4Z" fill="#151515" stroke="#151515"></path><path d="M1849.2 1924.6L1834.2 1813.2L1716.8 1847.2Z" fill="#1e1e1e" stroke="#1e1e1e"></path><path d="M2048 1734.8L2048 1612.4L1955.6 1650.4Z" fill="#393939" stroke="#393939"></path><path d="M127.4 625.4L197.8 746.8L229.8 616.4Z" fill="#303030" stroke="#303030"></path><path d="M2048 1612.4L2048 1513L1921.6 1529Z" fill="#303030" stroke="#303030"></path><path d="M279.2 1655.4L283.2 1734.8L399.6 1642.4Z" fill="#2b2b2b" stroke="#2b2b2b"></path><path d="M424.6 1826.2L431.6 1969.6L536 1944.6Z" fill="#1a1a1a" stroke="#1a1a1a"></path><path d="M213.8 1664.4L283.2 1734.8L279.2 1655.4Z" fill="#1a1a1a" stroke="#1a1a1a"></path><path d="M2048 716.8L2048 631.4L1949.6 719.8Z" fill="#101010" stroke="#101010"></path><path d="M223.8 392.6L218.8 500L296.2 435.6Z" fill="#272727" stroke="#272727"></path><path d="M296.2 435.6L218.8 500L308.2 526Z" fill="#222222" stroke="#222222"></path><path d="M1437.6 2048L1508 2048L1444.6 1969.6Z" fill="#393939" stroke="#393939"></path><path d="M1663.4 1919.6L1755.8 1950.6L1716.8 1847.2Z" fill="#2b2b2b" stroke="#2b2b2b"></path><path d="M794.2 0L725.8 90.4L838.2 102.4Z" fill="#353535" stroke="#353535"></path><path d="M838.2 102.4L725.8 90.4L831.2 214.8Z" fill="#151515" stroke="#151515"></path><path d="M120.4 1318.2L96.4 1413.6L206.8 1430.6Z" fill="#1a1a1a" stroke="#1a1a1a"></path><path d="M192.8 1549L213.8 1664.4L279.2 1550Z" fill="#3e3e3e" stroke="#3e3e3e"></path><path d="M0 1401.6L96.4 1413.6L120.4 1318.2Z" fill="#151515" stroke="#151515"></path><path d="M0 1139.4L112.4 1242.8L113.4 1121.4Z" fill="#353535" stroke="#353535"></path><path d="M113.4 1121.4L132.4 1039L0 1009Z" fill="#151515" stroke="#151515"></path><path d="M110.4 1665.4L213.8 1664.4L192.8 1549Z" fill="#2b2b2b" stroke="#2b2b2b"></path><path d="M218.8 500L127.4 625.4L229.8 616.4Z" fill="#303030" stroke="#303030"></path><path d="M127.4 625.4L89.4 715.8L197.8 746.8Z" fill="#222222" stroke="#222222"></path><path d="M0 1009L132.4 1039L97.4 895.6Z" fill="#3e3e3e" stroke="#3e3e3e"></path><path d="M508 2048L640.4 2048L536 1944.6Z" fill="#151515" stroke="#151515"></path><path d="M536 1944.6L640.4 2048L615.4 1941.6Z" fill="#2b2b2b" stroke="#2b2b2b"></path><path d="M520 118.4L511 176.8L618.4 221.8Z" fill="#2b2b2b" stroke="#2b2b2b"></path><path d="M432.6 310.2L306.2 333.2L432.6 384.6Z" fill="#353535" stroke="#353535"></path><path d="M1858.2 299.2L1728.8 204.8L1730.8 321.2Z" fill="#3e3e3e" stroke="#3e3e3e"></path><path d="M1643.4 234.8L1519 80.4L1507 227.8Z" fill="#1a1a1a" stroke="#1a1a1a"></path><path d="M1858.2 299.2L1730.8 321.2L1868.2 412.6Z" fill="#3e3e3e" stroke="#3e3e3e"></path><path d="M1244.8 0L1227.8 94.4L1313.2 0Z" fill="#151515" stroke="#151515"></path><path d="M1227.8 94.4L1110.4 0L1127.4 115.4Z" fill="#303030" stroke="#303030"></path><path d="M1227.8 94.4L1342.2 120.4L1313.2 0Z" fill="#353535" stroke="#353535"></path><path d="M96.4 1413.6L125.4 1543L206.8 1430.6Z" fill="#353535" stroke="#353535"></path><path d="M1110.4 0L1022 0L1018 116.4Z" fill="#2b2b2b" stroke="#2b2b2b"></path><path d="M1669.4 116.4L1519 80.4L1643.4 234.8Z" fill="#151515" stroke="#151515"></path><path d="M2048 439.6L1930.6 378.6L1951.6 493Z" fill="#272727" stroke="#272727"></path><path d="M1951.6 493L1930.6 378.6L1868.2 412.6Z" fill="#101010" stroke="#101010"></path><path d="M389.6 231.8L306.2 333.2L432.6 310.2Z" fill="#272727" stroke="#272727"></path><path d="M218.8 500L99.4 510L127.4 625.4Z" fill="#303030" stroke="#303030"></path><path d="M1313.2 0L1342.2 120.4L1406.6 116.4Z" fill="#1e1e1e" stroke="#1e1e1e"></path><path d="M1930.6 378.6L1858.2 299.2L1868.2 412.6Z" fill="#272727" stroke="#272727"></path><path d="M1022 0L944.6 0L1018 116.4Z" fill="#303030" stroke="#303030"></path><path d="M725.8 90.4L644.4 78.4L710.8 211.8Z" fill="#222222" stroke="#222222"></path><path d="M1974.6 1740.8L1955.6 1650.4L1856.2 1768.8Z" fill="#1e1e1e" stroke="#1e1e1e"></path><path d="M1955.6 1650.4L2048 1612.4L1921.6 1529Z" fill="#222222" stroke="#222222"></path><path d="M1737.8 2048L1755.8 1950.6L1663.4 1919.6Z" fill="#1a1a1a" stroke="#1a1a1a"></path><path d="M1945.6 1846.2L1974.6 1740.8L1856.2 1768.8Z" fill="#2b2b2b" stroke="#2b2b2b"></path><path d="M2048 631.4L2048 535L1943.6 609.4Z" fill="#2b2b2b" stroke="#2b2b2b"></path><path d="M1508 2048L1606.4 2048L1533 1928.6Z" fill="#151515" stroke="#151515"></path><path d="M688.8 0L644.4 78.4L725.8 90.4Z" fill="#151515" stroke="#151515"></path><path d="M1945.6 1846.2L1856.2 1768.8L1834.2 1813.2Z" fill="#151515" stroke="#151515"></path><path d="M1462.6 0L1313.2 0L1406.6 116.4Z" fill="#3e3e3e" stroke="#3e3e3e"></path><path d="M0 1009L97.4 895.6L0 935.6Z" fill="#272727" stroke="#272727"></path><path d="M96.4 1413.6L0 1556L125.4 1543Z" fill="#3e3e3e" stroke="#3e3e3e"></path><path d="M0 935.6L97.4 895.6L0 836.2Z" fill="#1a1a1a" stroke="#1a1a1a"></path><path d="M193.8 1745.8L276.2 1813.2L283.2 1734.8Z" fill="#353535" stroke="#353535"></path><path d="M283.2 1734.8L276.2 1813.2L428.6 1771.8Z" fill="#2b2b2b" stroke="#2b2b2b"></path><path d="M193.8 1745.8L283.2 1734.8L213.8 1664.4Z" fill="#3e3e3e" stroke="#3e3e3e"></path><path d="M511 176.8L389.6 231.8L432.6 310.2Z" fill="#1e1e1e" stroke="#1e1e1e"></path><path d="M401.6 93.4L389.6 231.8L511 176.8Z" fill="#1e1e1e" stroke="#1e1e1e"></path><path d="M0 836.2L97.4 895.6L95.4 799.2Z" fill="#393939" stroke="#393939"></path><path d="M0 1139.4L0 1228.8L112.4 1242.8Z" fill="#1e1e1e" stroke="#1e1e1e"></path><path d="M210.8 310.2L223.8 392.6L306.2 333.2Z" fill="#393939" stroke="#393939"></path><path d="M306.2 333.2L223.8 392.6L296.2 435.6Z" fill="#222222" stroke="#222222"></path><path d="M0 720.8L95.4 799.2L89.4 715.8Z" fill="#1a1a1a" stroke="#1a1a1a"></path><path d="M315.2 1939.6L431.6 1969.6L424.6 1826.2Z" fill="#1e1e1e" stroke="#1e1e1e"></path><path d="M1759.8 115.4L1669.4 116.4L1728.8 204.8Z" fill="#2b2b2b" stroke="#2b2b2b"></path><path d="M1728.8 204.8L1669.4 116.4L1643.4 234.8Z" fill="#151515" stroke="#151515"></path><path d="M1519 80.4L1462.6 0L1406.6 116.4Z" fill="#222222" stroke="#222222"></path><path d="M944.6 0L794.2 0L838.2 102.4Z" fill="#2b2b2b" stroke="#2b2b2b"></path><path d="M595.4 0L520 118.4L644.4 78.4Z" fill="#353535" stroke="#353535"></path><path d="M644.4 78.4L520 118.4L618.4 221.8Z" fill="#1e1e1e" stroke="#1e1e1e"></path><path d="M0 1228.8L0 1300.2L112.4 1242.8Z" fill="#1e1e1e" stroke="#1e1e1e"></path><path d="M124.4 1718.8L193.8 1745.8L213.8 1664.4Z" fill="#3e3e3e" stroke="#3e3e3e"></path><path d="M276.2 1813.2L315.2 1939.6L424.6 1826.2Z" fill="#272727" stroke="#272727"></path><path d="M110.4 1665.4L192.8 1549L125.4 1543Z" fill="#353535" stroke="#353535"></path><path d="M0 720.8L0 836.2L95.4 799.2Z" fill="#1a1a1a" stroke="#1a1a1a"></path><path d="M0 720.8L89.4 715.8L0 626.4Z" fill="#1a1a1a" stroke="#1a1a1a"></path><path d="M1853.2 2048L1849.2 1924.6L1755.8 1950.6Z" fill="#1e1e1e" stroke="#1e1e1e"></path><path d="M1755.8 1950.6L1849.2 1924.6L1716.8 1847.2Z" fill="#303030" stroke="#303030"></path><path d="M434.6 2048L508 2048L431.6 1969.6Z" fill="#1a1a1a" stroke="#1a1a1a"></path><path d="M431.6 1969.6L508 2048L536 1944.6Z" fill="#2b2b2b" stroke="#2b2b2b"></path><path d="M1533 0L1462.6 0L1519 80.4Z" fill="#303030" stroke="#303030"></path><path d="M1849.2 1924.6L1945.6 1846.2L1834.2 1813.2Z" fill="#353535" stroke="#353535"></path><path d="M1974.6 1740.8L2048 1734.8L1955.6 1650.4Z" fill="#272727" stroke="#272727"></path><path d="M2048 535L2048 439.6L1951.6 493Z" fill="#353535" stroke="#353535"></path><path d="M1930.6 378.6L1926.6 278.2L1858.2 299.2Z" fill="#222222" stroke="#222222"></path><path d="M1862.2 176.8L1759.8 115.4L1728.8 204.8Z" fill="#101010" stroke="#101010"></path><path d="M0 1300.2L0 1401.6L120.4 1318.2Z" fill="#1e1e1e" stroke="#1e1e1e"></path><path d="M125.4 437.6L218.8 500L223.8 392.6Z" fill="#393939" stroke="#393939"></path><path d="M125.4 437.6L99.4 510L218.8 500Z" fill="#303030" stroke="#303030"></path><path d="M0 1612.4L110.4 1665.4L125.4 1543Z" fill="#2b2b2b" stroke="#2b2b2b"></path><path d="M2048 333.2L1926.6 278.2L1930.6 378.6Z" fill="#1a1a1a" stroke="#1a1a1a"></path><path d="M794.2 0L688.8 0L725.8 90.4Z" fill="#1e1e1e" stroke="#1e1e1e"></path><path d="M2048 1844.2L2048 1734.8L1974.6 1740.8Z" fill="#303030" stroke="#303030"></path><path d="M0 626.4L89.4 715.8L127.4 625.4Z" fill="#303030" stroke="#303030"></path><path d="M1606.4 2048L1737.8 2048L1663.4 1919.6Z" fill="#272727" stroke="#272727"></path><path d="M2048 1943.6L2048 1844.2L1945.6 1846.2Z" fill="#303030" stroke="#303030"></path><path d="M1645.4 0L1533 0L1519 80.4Z" fill="#151515" stroke="#151515"></path><path d="M1645.4 0L1519 80.4L1669.4 116.4Z" fill="#1a1a1a" stroke="#1a1a1a"></path><path d="M210.8 1861.2L276.2 1813.2L193.8 1745.8Z" fill="#3e3e3e" stroke="#3e3e3e"></path><path d="M210.8 1861.2L315.2 1939.6L276.2 1813.2Z" fill="#272727" stroke="#272727"></path><path d="M210.8 310.2L306.2 333.2L227.8 217.8Z" fill="#353535" stroke="#353535"></path><path d="M127.4 316.2L125.4 437.6L223.8 392.6Z" fill="#151515" stroke="#151515"></path><path d="M99.4 510L0 626.4L127.4 625.4Z" fill="#151515" stroke="#151515"></path><path d="M110.4 1665.4L124.4 1718.8L213.8 1664.4Z" fill="#2b2b2b" stroke="#2b2b2b"></path><path d="M0 1709.8L124.4 1718.8L110.4 1665.4Z" fill="#1e1e1e" stroke="#1e1e1e"></path><path d="M1862.2 176.8L1728.8 204.8L1858.2 299.2Z" fill="#353535" stroke="#353535"></path><path d="M297.2 195.8L306.2 333.2L389.6 231.8Z" fill="#2b2b2b" stroke="#2b2b2b"></path><path d="M297.2 195.8L389.6 231.8L401.6 93.4Z" fill="#353535" stroke="#353535"></path><path d="M315.2 1939.6L434.6 2048L431.6 1969.6Z" fill="#272727" stroke="#272727"></path><path d="M1946.6 178.8L1862.2 176.8L1926.6 278.2Z" fill="#2b2b2b" stroke="#2b2b2b"></path><path d="M1926.6 278.2L1862.2 176.8L1858.2 299.2Z" fill="#353535" stroke="#353535"></path><path d="M102.4 1848.2L210.8 1861.2L193.8 1745.8Z" fill="#2b2b2b" stroke="#2b2b2b"></path><path d="M315.2 1939.6L281.2 2048L434.6 2048Z" fill="#151515" stroke="#151515"></path><path d="M0 481L0 626.4L99.4 510Z" fill="#272727" stroke="#272727"></path><path d="M688.8 0L595.4 0L644.4 78.4Z" fill="#101010" stroke="#101010"></path><path d="M401.6 93.4L511 176.8L520 118.4Z" fill="#272727" stroke="#272727"></path><path d="M0 1401.6L0 1556L96.4 1413.6Z" fill="#272727" stroke="#272727"></path><path d="M102.4 1848.2L210.8 1924.6L210.8 1861.2Z" fill="#2b2b2b" stroke="#2b2b2b"></path><path d="M512 0L401.6 93.4L520 118.4Z" fill="#222222" stroke="#222222"></path><path d="M2048 439.6L2048 333.2L1930.6 378.6Z" fill="#353535" stroke="#353535"></path><path d="M1741.8 0L1669.4 116.4L1759.8 115.4Z" fill="#393939" stroke="#393939"></path><path d="M1741.8 0L1645.4 0L1669.4 116.4Z" fill="#151515" stroke="#151515"></path><path d="M1959.6 1960.6L1945.6 1846.2L1849.2 1924.6Z" fill="#393939" stroke="#393939"></path><path d="M1945.6 1846.2L2048 1844.2L1974.6 1740.8Z" fill="#353535" stroke="#353535"></path><path d="M0 1556L0 1612.4L125.4 1543Z" fill="#1a1a1a" stroke="#1a1a1a"></path><path d="M197.8 126.4L227.8 217.8L297.2 195.8Z" fill="#151515" stroke="#151515"></path><path d="M297.2 195.8L227.8 217.8L306.2 333.2Z" fill="#2b2b2b" stroke="#2b2b2b"></path><path d="M210.8 310.2L127.4 316.2L223.8 392.6Z" fill="#2b2b2b" stroke="#2b2b2b"></path><path d="M125.4 437.6L0 481L99.4 510Z" fill="#353535" stroke="#353535"></path><path d="M102.4 1848.2L193.8 1745.8L124.4 1718.8Z" fill="#303030" stroke="#303030"></path><path d="M210.8 1861.2L210.8 1924.6L315.2 1939.6Z" fill="#151515" stroke="#151515"></path><path d="M595.4 0L512 0L520 118.4Z" fill="#1e1e1e" stroke="#1e1e1e"></path><path d="M401.6 93.4L301.2 81.4L297.2 195.8Z" fill="#2b2b2b" stroke="#2b2b2b"></path><path d="M1935.6 70.4L1812.2 79.4L1862.2 176.8Z" fill="#1a1a1a" stroke="#1a1a1a"></path><path d="M1862.2 176.8L1812.2 79.4L1759.8 115.4Z" fill="#303030" stroke="#303030"></path><path d="M1737.8 2048L1853.2 2048L1755.8 1950.6Z" fill="#101010" stroke="#101010"></path><path d="M1923.6 2048L1959.6 1960.6L1849.2 1924.6Z" fill="#393939" stroke="#393939"></path><path d="M227.8 217.8L127.4 316.2L210.8 310.2Z" fill="#353535" stroke="#353535"></path><path d="M2048 235.8L1946.6 178.8L1926.6 278.2Z" fill="#3e3e3e" stroke="#3e3e3e"></path><path d="M0 405.6L0 481L125.4 437.6Z" fill="#222222" stroke="#222222"></path><path d="M1812.2 0L1741.8 0L1812.2 79.4Z" fill="#222222" stroke="#222222"></path><path d="M1812.2 79.4L1741.8 0L1759.8 115.4Z" fill="#222222" stroke="#222222"></path><path d="M0 1827.2L102.4 1848.2L124.4 1718.8Z" fill="#303030" stroke="#303030"></path><path d="M0 1612.4L0 1709.8L110.4 1665.4Z" fill="#1e1e1e" stroke="#1e1e1e"></path><path d="M190.8 2048L281.2 2048L210.8 1924.6Z" fill="#101010" stroke="#101010"></path><path d="M210.8 1924.6L281.2 2048L315.2 1939.6Z" fill="#222222" stroke="#222222"></path><path d="M2048 333.2L2048 235.8L1926.6 278.2Z" fill="#3e3e3e" stroke="#3e3e3e"></path><path d="M1935.6 70.4L1812.2 0L1812.2 79.4Z" fill="#353535" stroke="#353535"></path><path d="M1853.2 2048L1923.6 2048L1849.2 1924.6Z" fill="#3e3e3e" stroke="#3e3e3e"></path><path d="M1959.6 1960.6L2048 1943.6L1945.6 1846.2Z" fill="#3e3e3e" stroke="#3e3e3e"></path><path d="M512 0L415.6 0L401.6 93.4Z" fill="#2b2b2b" stroke="#2b2b2b"></path><path d="M227.8 217.8L123.4 185.8L127.4 316.2Z" fill="#222222" stroke="#222222"></path><path d="M415.6 0L301.2 81.4L401.6 93.4Z" fill="#353535" stroke="#353535"></path><path d="M127.4 316.2L0 405.6L125.4 437.6Z" fill="#101010" stroke="#101010"></path><path d="M2048 2048L2048 1943.6L1959.6 1960.6Z" fill="#353535" stroke="#353535"></path><path d="M0 330.2L0 405.6L127.4 316.2Z" fill="#303030" stroke="#303030"></path><path d="M1935.6 70.4L1862.2 176.8L1946.6 178.8Z" fill="#393939" stroke="#393939"></path><path d="M2048 90.4L1935.6 70.4L1946.6 178.8Z" fill="#1a1a1a" stroke="#1a1a1a"></path><path d="M206.8 0L197.8 126.4L301.2 81.4Z" fill="#272727" stroke="#272727"></path><path d="M301.2 81.4L197.8 126.4L297.2 195.8Z" fill="#151515" stroke="#151515"></path><path d="M197.8 126.4L123.4 185.8L227.8 217.8Z" fill="#2b2b2b" stroke="#2b2b2b"></path><path d="M0 1958.6L100.4 1953.6L102.4 1848.2Z" fill="#1e1e1e" stroke="#1e1e1e"></path><path d="M102.4 1848.2L100.4 1953.6L210.8 1924.6Z" fill="#272727" stroke="#272727"></path><path d="M100.4 1953.6L190.8 2048L210.8 1924.6Z" fill="#353535" stroke="#353535"></path><path d="M123.4 185.8L0 330.2L127.4 316.2Z" fill="#1e1e1e" stroke="#1e1e1e"></path><path d="M0 1709.8L0 1827.2L124.4 1718.8Z" fill="#2b2b2b" stroke="#2b2b2b"></path><path d="M197.8 126.4L73.4 112.4L123.4 185.8Z" fill="#303030" stroke="#303030"></path><path d="M415.6 0L288.2 0L301.2 81.4Z" fill="#1e1e1e" stroke="#1e1e1e"></path><path d="M1923.6 2048L2048 2048L1959.6 1960.6Z" fill="#353535" stroke="#353535"></path><path d="M2048 235.8L2048 90.4L1946.6 178.8Z" fill="#151515" stroke="#151515"></path><path d="M1935.6 70.4L1944.6 0L1812.2 0Z" fill="#1a1a1a" stroke="#1a1a1a"></path><path d="M2048 0L1944.6 0L1935.6 70.4Z" fill="#222222" stroke="#222222"></path><path d="M288.2 0L206.8 0L301.2 81.4Z" fill="#1e1e1e" stroke="#1e1e1e"></path><path d="M123.4 185.8L0 173.8L0 330.2Z" fill="#393939" stroke="#393939"></path><path d="M0 1958.6L79.4 2048L100.4 1953.6Z" fill="#2b2b2b" stroke="#2b2b2b"></path><path d="M100.4 1953.6L79.4 2048L190.8 2048Z" fill="#101010" stroke="#101010"></path><path d="M0 1827.2L0 1958.6L102.4 1848.2Z" fill="#353535" stroke="#353535"></path><path d="M85.4 0L73.4 112.4L197.8 126.4Z" fill="#1a1a1a" stroke="#1a1a1a"></path><path d="M0 87.4L0 173.8L73.4 112.4Z" fill="#101010" stroke="#101010"></path><path d="M73.4 112.4L0 173.8L123.4 185.8Z" fill="#272727" stroke="#272727"></path><path d="M2048 90.4L2048 0L1935.6 70.4Z" fill="#303030" stroke="#303030"></path><path d="M0 1958.6L0 2048L79.4 2048Z" fill="#3e3e3e" stroke="#3e3e3e"></path><path d="M85.4 0L0 87.4L73.4 112.4Z" fill="#1e1e1e" stroke="#1e1e1e"></path><path d="M206.8 0L85.4 0L197.8 126.4Z" fill="#1e1e1e" stroke="#1e1e1e"></path><path d="M85.4 0L0 0L0 87.4Z" fill="#353535" stroke="#353535"></path></g></svg>